<svg width="36" height="34" viewBox="0 0 36 34" fill="none" xmlns="http://www.w3.org/2000/svg">
<path d="M 35.8 16.8 C 35.8 26.1 28 33.6 18.3 33.6 C 8.7 33.6 0.9 26.1 0.9 16.8 C 0.9 7.5 8.7 -0 18.3 -0 C 28 -0 35.8 7.5 35.8 16.8 Z" fill="white"/>
<path fill-rule="evenodd" clip-rule="evenodd" d="M 18.3 31.1 C 26.7 31.1 33.2 24.6 33.2 16.8 C 33.2 9 26.7 2.5 18.3 2.5 C 10 2.5 3.4 9 3.4 16.8 C 3.4 24.6 10 31.1 18.3 31.1 Z M 18.3 33.6 C 28 33.6 35.8 26.1 35.8 16.8 C 35.8 7.5 28 -0 18.3 -0 C 8.7 -0 0.9 7.5 0.9 16.8 C 0.9 26.1 8.7 33.6 18.3 33.6 Z" fill="black"/>
<path d="M 30.1 16.8 C 30.1 23.3 24.8 28.6 18.3 28.6 C 11.8 28.6 6.6 23.3 6.6 16.8 C 6.6 10.3 11.8 5.1 18.3 5.1 C 24.8 5.1 30.1 10.3 30.1 16.8 Z" fill="white"/>
<path fill-rule="evenodd" clip-rule="evenodd" d="M 18.3 26 C 23.4 26 27.5 21.9 27.5 16.8 C 27.5 11.7 23.4 7.6 18.3 7.6 C 13.2 7.6 9.1 11.7 9.1 16.8 C 9.1 21.9 13.2 26 18.3 26 Z M 18.3 28.6 C 24.8 28.6 30.1 23.3 30.1 16.8 C 30.1 10.3 24.8 5.1 18.3 5.1 C 11.8 5.1 6.6 10.3 6.6 16.8 C 6.6 23.3 11.8 28.6 18.3 28.6 Z" fill="black"/>
</svg>
